# xmcd CD database file
#
# Track frame offsets:
#	150
#	20798
#	44303
#	66243
#	89290
#	108180
#	136323
#	157980
#
# Disc length: 2413 seconds
#
# Revision: 0
# Processed by: cddbd v1.4PL0 Copyright (c) Steve Scherf et al.
# Submitted via: CdAid 2001.05.15.01
#
DISCID=63096b08
DTITLE=Blues Boy Willie - Be-Who ?
DYEAR=1900
DGENRE=
TTITLE0=Why are you cheatin' on me
TTITLE1=Same ol' fishing hole
TTITLE2=Crack up
TTITLE3=Stealin' your love tonight
TTITLE4=Let me funk with you
TTITLE5=Can we talk before we separate
TTITLE6=Highway blues
TTITLE7=Be-who
EXTD=
EXTT0=
EXTT1=
EXTT2=
EXTT3=
EXTT4=
EXTT5=
EXTT6=
EXTT7=
PLAYORDER=
